<svg width="49" height="50" viewBox="0 0 49 50" fill="none" xmlns="http://www.w3.org/2000/svg">
<path fill-rule="evenodd" clip-rule="evenodd" d="M32.9344 14.7539H3.12109V36.2858H7.26168C7.2915 33.5366 9.52932 31.3172 12.2855 31.3172C15.0417 31.3172 17.2795 33.5366 17.3093 36.2858H32.9344V14.7539ZM16.4811 36.2858C16.4514 33.994 14.5843 32.1454 12.2855 32.1454C9.9867 32.1454 8.11966 33.994 8.08989 36.2858H16.4811Z" fill="#48AFFF"/>
<path fill-rule="evenodd" clip-rule="evenodd" d="M41.2141 22.2051H34.5889V36.2836H36.9623C36.9914 33.5339 39.2295 31.3138 41.9861 31.3138C44.7427 31.3138 46.9808 33.5339 47.0099 36.2836H47.8392V29.2443L41.2141 22.2051ZM46.1817 36.2836C46.1526 33.9913 44.2853 32.142 41.9861 32.142C39.6869 32.142 37.8196 33.9913 37.7905 36.2836H46.1817Z" fill="#FBEB00"/>
<path fill-rule="evenodd" clip-rule="evenodd" d="M41.2141 22.2051H34.5889V36.2836H36.9623C36.9914 33.5339 39.2295 31.3138 41.9861 31.3138C44.7427 31.3138 46.9808 33.5339 47.0099 36.2836H47.8392V29.2443L41.2141 22.2051ZM46.1817 36.2836C46.1526 33.9913 44.2853 32.142 41.9861 32.142C39.6869 32.142 37.8196 33.9913 37.7905 36.2836H46.1817Z" fill="#48AFFF"/>
<path fill-rule="evenodd" clip-rule="evenodd" d="M41.2141 22.2051H34.5889V36.2836H36.9623C36.9914 33.5339 39.2295 31.3138 41.9861 31.3138C44.7427 31.3138 46.9808 33.5339 47.0099 36.2836H47.8392V29.2443L41.2141 22.2051ZM46.1817 36.2836C46.1526 33.9913 44.2853 32.142 41.9861 32.142C39.6869 32.142 37.8196 33.9913 37.7905 36.2836H46.1817Z" fill="#F90390"/>
<path fill-rule="evenodd" clip-rule="evenodd" d="M41.2141 22.2051H34.5889V36.2836H36.9623C36.9914 33.5339 39.2295 31.3138 41.9861 31.3138C44.7427 31.3138 46.9808 33.5339 47.0099 36.2836H47.8392V29.2443L41.2141 22.2051ZM46.1817 36.2836C46.1526 33.9913 44.2853 32.142 41.9861 32.142C39.6869 32.142 37.8196 33.9913 37.7905 36.2836H46.1817Z" fill="#34A6FF"/>
<circle cx="12.2858" cy="36.3405" r="4.19598" fill="#FFF348"/>
<circle cx="41.986" cy="36.3405" r="4.19598" fill="#FFF348"/>
<circle cx="23.4015" cy="23.9581" r="9.88" fill="white"/>
<path d="M36.2471 23.8633C39.1578 23.8633 38.3053 23.8633 41.216 23.8633L43.7004 26.7618V29.6603H36.2471V23.8633Z" fill="#FFF348"/>
<path d="M17.5663 23.8363C17.5663 23.6982 17.5693 23.5597 17.5838 23.4238H15.9443C15.9344 23.5597 15.9316 23.6982 15.9316 23.8363C15.9316 23.9772 15.9344 24.113 15.9443 24.2489H17.5838C17.5693 24.1131 17.5663 23.9749 17.5663 23.8363Z" fill="#F90390"/>
<path d="M20.4653 18.5505C20.6202 18.4524 20.7786 18.3596 20.9393 18.278L21.0019 18.2475L20.1848 16.8281C19.9803 16.9315 19.781 17.046 19.5879 17.1716L20.4054 18.5909L20.4653 18.5505Z" fill="#F90390"/>
<path d="M16.8252 20.1961L18.2449 21.0132L18.5884 20.4171L17.1683 19.5996C17.0431 19.7931 16.9286 19.9916 16.8252 20.1961Z" fill="#F90390"/>
<path d="M29.3945 26.7328C29.3094 26.8939 29.2197 27.0519 29.119 27.2046L29.0781 27.2645L30.4982 28.082C30.6234 27.8885 30.7379 27.6927 30.844 27.4882L29.4273 26.668L29.3945 26.7328Z" fill="#F90390"/>
<path d="M18.2747 26.7306L18.2419 26.668L16.8252 27.4851C16.926 27.6897 17.0431 27.8885 17.1683 28.082L18.5884 27.2645L18.5472 27.2046C18.4491 27.0519 18.3568 26.8939 18.2747 26.7306Z" fill="#F90390"/>
<path d="M20.4653 29.1194L20.4054 29.0781L19.5879 30.4982C19.781 30.6238 19.9802 30.7405 20.1848 30.8443L21.0019 29.4246L20.9393 29.3945C20.7786 29.3129 20.6202 29.2201 20.4653 29.1194Z" fill="#F90390"/>
<path d="M28.0829 17.1716C27.8898 17.046 27.6929 16.9316 27.4895 16.8281L26.6689 18.2452L27.2654 18.5909L28.0829 17.1716Z" fill="#F90390"/>
<path d="M23.4189 30.0895V31.7271C23.5552 31.7393 23.6933 31.7416 23.8311 31.7416C23.97 31.7416 24.1082 31.7393 24.244 31.7271V30.0895V30.0723H23.4189V30.0895Z" fill="#F90390"/>
<path d="M24.244 17.5861V15.9484C24.1082 15.9363 23.97 15.9336 23.8311 15.9336C23.6933 15.9336 23.5552 15.9363 23.4189 15.9484V17.5861V17.6033H24.244V17.5861Z" fill="#F90390"/>
<path d="M26.6689 29.4273L27.4895 30.8443C27.6929 30.7375 27.8898 30.6238 28.0829 30.4982L27.2654 29.0781L26.6689 29.4273Z" fill="#F90390"/>
<path d="M30.844 20.1961C30.7402 19.9916 30.6234 19.7931 30.4982 19.5996L29.0781 20.4171L29.4247 21.0132L30.844 20.1961Z" fill="#F90390"/>
<path d="M31.7099 23.4238H30.0699H30.0527V24.2489H30.0699H31.7099C31.7198 24.1131 31.7221 23.9749 31.7221 23.8363C31.7221 23.6982 31.7198 23.5597 31.7099 23.4238Z" fill="#F90390"/>
<path d="M33.692 15.0632C33.692 15.0632 33.6474 15.9166 32.8295 16.2799C32.0116 16.6436 31.1938 15.8257 32.3754 14.9166C33.5566 14.0076 33.4657 11.0093 32.3754 10.1003C32.6479 10.8273 31.5114 11.8272 30.7851 11.191C30.0577 10.0095 30.8301 8.05546 31.9208 7.51042C31.1029 6.87349 28.6944 7.60091 28.6944 9.23702C28.6944 10.5385 28.7398 11.0548 27.6491 11.0094C26.4553 10.959 27.4678 8.9184 27.6491 8.64585C24.1047 9.14581 26.1041 12.2814 24.7409 12.3719C23.3777 12.4631 24.1959 11.0093 24.2868 10.827C21.9164 11.2212 22.4942 12.7031 20.8416 13.9664C16.6061 15.2498 13.5228 19.1827 13.5225 23.838C13.5228 29.5352 18.1404 34.1524 23.8372 34.1527C29.5344 34.1524 34.1519 29.5352 34.1523 23.838C34.1523 22.5217 33.9031 21.2645 33.4539 20.107C33.5661 18.7212 34.0653 17.8721 34.2325 17.1843C34.6069 15.6456 33.692 15.0632 33.692 15.0632ZM23.8372 32.8219C21.3542 32.8215 19.1124 31.8174 17.4847 30.1905C15.8578 28.5624 14.8536 26.3206 14.8533 23.838C14.8536 21.3547 15.8578 19.1129 17.4847 17.4852C19.1124 15.8582 21.3542 14.8541 23.8372 14.8541C26.3202 14.8541 28.5619 15.8582 30.1901 17.4852C31.8171 19.1129 32.8211 21.3547 32.8215 23.838C32.8211 26.3206 31.817 28.5624 30.1901 30.1905C28.5619 31.8174 26.3202 32.8215 23.8372 32.8219Z" fill="#F90390"/>
<path d="M27.3398 19.5401L23.8489 23.2692L21.1538 21.3927C20.9019 21.2068 20.5236 21.2927 20.3103 21.5843C20.0969 21.8751 20.1286 22.2613 20.3817 22.4468L23.4288 24.7977L23.4707 24.8221L23.4902 24.8324C23.7539 24.9794 24.1024 24.9015 24.3348 24.6454L24.355 24.6256L28.0898 20.2069C28.3028 19.9687 28.3066 19.6261 28.0993 19.4417C27.892 19.2577 27.552 19.302 27.3398 19.5401Z" fill="#F90390"/>
</svg>
